<svg class="icon" viewBox="0 0 1103 1024" version="1.1" xmlns="http://www.w3.org/2000/svg" width="200" height="200"><path d="M180.93927258 288.26598069c-13.20912378 0-24.76700491 11.55788032-24.76700409 24.76700491v231.16420294c0 13.20994776 11.55788032 24.76782889 24.76700409 24.76782806s24.76782889-11.55788032 24.76782889-24.76782806V313.0329856c0-13.2082998-11.55788032-24.76700491-24.76782889-24.76700491zM114.89365286 354.3124252C101.68288032 354.3124252 90.125 365.87112949 90.125 379.08025409V478.15074402c0 13.20912378 11.55788032 24.76700491 24.76782889 24.76700491s24.76700491-11.55788032 24.76700409-24.76700491V379.08025409c0-13.20912378-11.55788032-24.76782889-24.76700409-24.76782889z m792.56227478-66.04644451c-13.2082998 0-24.76700491 11.55788032-24.76700408 24.76700491v231.16420293c0 13.20994776 11.55788032 24.76782889 24.76700408 24.76782808s24.76865286-11.55788032 24.76865287-24.76782808V313.0329856c0-13.2082998-11.55870429-24.76700491-24.76865287-24.76700491zM836.45575272 189.19549075h-168.42024537V119.84573533C668.03550735 103.33412378 654.82720754 90.125 639.9660155 90.125H448.4300087c-16.51161072 0-28.06949185 13.20912378-28.06949103 29.72073532v69.34975543H250.28902801c-14.86119123 0-28.07031582 13.20912378-28.07031582 28.06949103V638.31477203c0 16.51243469 13.20912378 29.72073532 29.72073532 29.72073532h168.42024618v49.53565695h-71.00099889c-16.51161072 0-28.06949185 13.20994776-28.06949185 29.72073533V904.15344071c0 16.51161072 13.20912378 29.72073532 28.06949185 29.72073531h388.02574402c16.51243469 0 28.07031582-13.20912378 28.07031582-29.72073531V747.29189963c0-16.51243469-13.20994776-29.72073532-28.07031582-29.72073533H668.03550735V668.03550735h170.07066568c16.51243469 0 29.72073532-13.20912378 29.7207345-29.72073531V217.26415781c-1.65041949-16.51161072-14.86036724-28.06949185-31.37197879-28.06949103zM469.89452667 139.65983298h148.60532373v49.53565777H469.89452667V139.65983298z m247.67581366 627.44616512v115.58210148H370.82403592V767.1059981h97.41924728V668.03550735H616.85025488v99.07049075h100.72090942z m99.07049075-176.67646353c0 16.51243469-13.20912378 28.07031582-28.06949184 28.07031583H299.82386099c-16.51243469 0-28.06949185-13.2082998-28.06949102-28.06949185V266.80063956c0-16.51243469 13.2082998-28.07031582 28.06949102-28.07031583h487.09623477c16.51161072 0 28.06949185 13.20994776 28.06949186 28.07031583v323.62971899zM668.03550735 337.80163764c-46.23317002 0-82.55887922 36.3257092-82.55887921 82.55888003S621.80233734 502.91774893 668.03550735 502.91774893s82.55887922-36.3257092 82.55887922-82.55805524-36.32653317-82.55887922-82.55887922-82.55888003z m0 115.58210147c-18.16285419 0-33.02322226-14.86036724-33.02322226-33.02322144s14.86036724-33.02322226 33.02322226-33.02322226 33.02322226 14.86036724 33.02322226 33.02322226-14.86036724 33.02322226-33.02322226 33.02322144zM420.35969369 337.80081366c-46.23317002 0-82.55887922 36.3257092-82.55888003 82.55888003s36.3257092 82.55805524 82.55888003 82.55805524 82.55805524-36.3257092 82.55805523-82.55805524-36.3257092-82.55887922-82.55805523-82.55888003z m0 115.58210148c-18.16285419 0-33.02322226-14.86036724-33.02322226-33.02322145s14.86036724-33.02322226 33.02322226-33.02322226 33.02322226 14.86036724 33.02322145 33.02322226-14.86036724 33.02322226-33.02322145 33.02322145z m553.1418545-99.07048994c-13.2082998 0-24.76700491 11.55870429-24.76700491 24.76782889V478.15074402c0 13.20912378 11.55870429 24.76700491 24.76782889 24.76700491s24.76782889-11.55788032 24.76782888-24.76700491V379.08025409c0-13.20912378-11.55870429-24.76782889-24.76865286-24.76782889z" fill="#0276f7"></path></svg>
