<svg class="icon" viewBox="0 0 1024 1024" version="1.1" xmlns="http://www.w3.org/2000/svg" width="200" height="200"><path d="M804.608 111.616H218.112a71.3216 71.3216 0 0 0-71.2704 71.2192V839.68a71.3216 71.3216 0 0 0 71.2704 70.9632h586.496A71.3216 71.3216 0 0 0 875.8272 839.68V182.8352a71.3216 71.3216 0 0 0-71.2192-71.2192zM492.032 159.1296v238.336L417.28 353.28a35.5328 35.5328 0 0 0-17.92-4.7104 35.1232 35.1232 0 0 0-17.92 4.8128l-74.6496 44.0832V159.1296zM828.3648 839.68a23.7568 23.7568 0 0 1-23.7568 23.7568H218.112A23.7568 23.7568 0 0 1 194.56 839.68V182.8352a23.7568 23.7568 0 0 1 23.7568-23.7056h40.96v257.792a33.6384 33.6384 0 0 0 17.6128 29.2864 41.6768 41.6768 0 0 0 40.96-0.256L399.36 397.9264l81.3568 48.0256a41.5744 41.5744 0 0 0 40.96 0.256 33.7408 33.7408 0 0 0 17.6128-29.2864V159.1296h265.1136a23.7568 23.7568 0 0 1 23.7568 23.7056z" fill="#288EFD"></path><path d="M726.272 770.2528H284.6208a23.7568 23.7568 0 1 0 0 47.4624h441.6512a23.7568 23.7568 0 1 0 0-47.4624zM726.272 692.6848H462.7456a23.7568 23.7568 0 1 0 0 47.4624h263.5264a23.7568 23.7568 0 1 0 0-47.4624z" fill="#288EFD"></path></svg>
