<svg class="icon" viewBox="0 0 1068 1024" version="1.1" xmlns="http://www.w3.org/2000/svg" width="200" height="200"><path d="M801.391304 912.695652a44.521739 44.521739 0 0 1 5.209044 88.731826L801.391304 1001.73913H267.130435a44.521739 44.521739 0 0 1-5.209044-88.731826L267.130435 912.695652h534.260869zM934.956522 0a133.565217 133.565217 0 0 1 133.565217 133.565217v534.26087a133.565217 133.565217 0 0 1-133.565217 133.565217H133.565217a133.565217 133.565217 0 0 1-133.565217-133.565217V133.565217a133.565217 133.565217 0 0 1 133.565217-133.565217z m0 89.043478H133.565217a44.521739 44.521739 0 0 0-44.521739 44.521739v534.26087a44.521739 44.521739 0 0 0 44.521739 44.521739h801.391305a44.521739 44.521739 0 0 0 44.521739-44.521739V133.565217a44.521739 44.521739 0 0 0-44.521739-44.521739z m-57.566609 146.610087a44.521739 44.521739 0 0 1 3.695304 58.768696l-3.695304 4.185043-178.086956 178.086957a44.521739 44.521739 0 0 1-51.378087 8.370087L536.264348 429.189565a44.521739 44.521739 0 0 0-55.518609 13.133913L391.791304 560.973913a44.521739 44.521739 0 0 1-60.326956 10.329044l-133.565218-89.043479a44.521739 44.521739 0 0 1 44.922435-76.710956l4.452174 2.626782 63.532522 42.295653a44.521739 44.521739 0 0 0 60.282435-10.329044L454.121739 329.46087a44.521739 44.521739 0 0 1 55.518609-13.133913l120.653913 60.326956a44.521739 44.521739 0 0 0 51.422609-8.325565l132.674782-132.674783a44.521739 44.521739 0 0 1 62.998261 0z" fill="#008df0"></path></svg>
