<svg class="icon" viewBox="0 0 1024 1024" version="1.1" xmlns="http://www.w3.org/2000/svg" width="200" height="200"><path d="M540.8 189.909333h198.058667l-134.101334 279.296 0.810667 1.450667h31.061333l124.885334-260.053333 123.605333 260.053333h32.213333l-133.376-280.746667h0.042667V160h-220.714667v-19.2c0-30.549333-25.002667-55.424-55.68-55.424-30.762667 0-55.722667 24.874667-55.722666 55.424v19.114667H237.909333v29.994666h2.944L106.666667 469.205333l0.810666 1.450667h31.061334l124.928-260.053333L386.986667 470.613333h32.213333l-133.333333-280.746666h186.709333v647.68l-234.666667 70.058666V938.666667h546.048v-31.018667l-243.2-70.058667V189.909333zM419.285333 512c0-1.749333-0.170667-3.456-0.213333-5.162667H106.965333c-0.042667 1.706667-0.256 3.413333-0.256 5.162667a155.946667 155.946667 0 0 0 156.288 155.562667A155.946667 155.946667 0 0 0 419.285333 512z m185.728-5.162667c-0.085333 1.706667-0.256 3.413333-0.256 5.162667a155.989333 155.989333 0 0 0 156.288 155.562667A155.904 155.904 0 0 0 917.290667 512c0-1.749333-0.213333-3.456-0.256-5.162667H605.013333z" fill="#0095FF"></path></svg>
